<svg width="112.87096703052524" height="137.35483515262604" version="1.1" xml:space="preserve" sodipodi:docname="logotemp.svg" inkscape:version="1.4 (e7c3feb100, 2024-10-09)" inkscape:export-filename="logotemp_sinfondo2.png" inkscape:export-xdpi="300" inkscape:export-ydpi="300" xmlns:inkscape="http://www.inkscape.org/namespaces/inkscape" xmlns:sodipodi="http://sodipodi.sourceforge.net/DTD/sodipodi-0.dtd" xmlns="http://www.w3.org/2000/svg" xmlns:svg="http://www.w3.org/2000/svg" style=""><rect id="backgroundrect" width="100%" height="100%" x="0" y="0" fill="none" stroke="none" style="" class=""/><sodipodi:namedview id="namedview1" pagecolor="#505050" bordercolor="#eeeeee" borderopacity="1" inkscape:showpageshadow="0" inkscape:pageopacity="0" inkscape:pagecheckerboard="0" inkscape:deskcolor="#505050" inkscape:document-units="mm" inkscape:zoom="0.70710678" inkscape:cx="440.52753" inkscape:cy="627.91082" inkscape:window-width="1920" inkscape:window-height="1011" inkscape:window-x="0" inkscape:window-y="0" inkscape:window-maximized="1" inkscape:current-layer="layer1" inkscape:export-bgcolor="#ffffff00"/><defs id="defs1"><rect x="118.54287719726562" y="205.93580627441406" width="344.3800354003906" height="185.16917419433594" id="rect12"/><inkscape:path-effect effect="fillet_chamfer" id="path-effect12" is_visible="true" lpeversion="1" nodesatellites_param="F,0,0,1,0,0,0,1 @ F,0,0,1,0,0,0,1 @ F,0,0,1,0,0,0,1 @ F,0,0,1,0,0,0,1 @ F,0,0,1,0,0,0,1 @ F,0,0,1,0,0,0,1 @ F,0,0,1,0,0,0,1 @ F,0,0,1,0,0,0,1" radius="0" unit="px" method="auto" mode="F" chamfer_steps="1" flexible="false" use_knot_distance="true" apply_no_radius="true" apply_with_radius="true" only_selected="false" hide_knots="false"/></defs><g class="currentLayer" style=""><title>Layer 1</title><g inkscape:label="Capa 1" inkscape:groupmode="layer" id="layer1" class=""><path id="path10-4" style="fill:#000000;fill-opacity:1;stroke:#383138;stroke-width:0;stroke-opacity:1" d="m85.37518796051026,104.30967663557053 c7.46342,0.0003500000000000003 6.60308,-9.68197 6.60308,-9.68197 c0,0 -1.28748,-0.6234400000000004 -2.8707000000000003,0.008000000000000007 l-0.0709,3.08119 c-0.03980000000000003,1.7316000000000007 -1.82122,3.63572 -3.51927,3.7605500000000003 l-2.4730600000000003,0.18179000000000015 c-0.8278300000000004,0.060800000000000055 -3.82904,0.5316200000000004 -4.40031,0.012500000000000008 c-2.18116,1.6457600000000001 -1.3019500000000002,1.7282600000000001 2.88702,2.6095800000000002 c1.1853,0.24937 2.39991,0.028200000000000013 3.3164700000000003,0.028200000000000013 z" sodipodi:nodetypes="sccssscsss" inkscape:export-filename="logonegro.png" inkscape:export-xdpi="250" inkscape:export-ydpi="250"/><path id="path10-5" style="fill:#000000;fill-opacity:1;stroke:#383138;stroke-width:0;stroke-opacity:1" d="m10.31184396051026,98.60106663557053 c0.7701619999999996,7.24513 9.387354,5.67676 9.387354,5.67676 c0,0 0.5904550000000004,-1.2879800000000001 -0.09215000000000009,-2.80134 l-2.986981,0.024200000000000013 c-1.661937,0.013500000000000014 -2.895317,-1.0641 -3.061882,-2.71773 l-0.296748,-2.9461500000000003 c-0.0811600000000001,-0.80618 -0.232371,-4.42611 -0.14723700000000015,-4.82588 c-1.6835980000000008,-2.04773 -2.6538950000000003,-0.96053 -2.912527,3.20734 c-0.07999000000000007,1.28904 0.015560000000000011,3.49302 0.11014600000000008,4.38277 z" sodipodi:nodetypes="sccssscsss"/><path id="path1-6" style="display:inline;fill:#000000;fill-opacity:1;stroke:#383138;stroke-width:0;stroke-opacity:1" d="m81.89752796051025,5.87864763557053 a24.966562,23.959846 0 0 0 -24.96695,23.959869 a24.966562,23.959846 0 0 0 24.96695,23.9604 a24.966562,23.959846 0 0 0 24.96644,-23.9604 a24.966562,23.959846 0 0 0 -24.96644,-23.959869 zm0.18862,2.045353 a23.0175,22.089375 0 0 1 23.01772,22.089186 a23.0175,22.089375 0 0 1 -23.01772,22.08971 a23.0175,22.089375 0 0 1 -23.0172,-22.08971 a23.0175,22.089375 0 0 1 23.0172,-22.089186 z"/><ellipse style="display:inline;fill:#000000;fill-opacity:1;stroke:#383138;stroke-width:0;stroke-opacity:1" id="path2-7" cx="62.20736789703369" cy="30.27791565656662" rx="1.6706249713897705" ry="1.7432608604431152"/><ellipse style="display:inline;fill:#000000;fill-opacity:1;stroke:#383138;stroke-width:0;stroke-opacity:1" id="path2-23" cx="82.8447732925415" cy="48.798644721508026" rx="1.6706249713897705" ry="1.7432608604431152"/><ellipse style="display:inline;fill:#000000;fill-opacity:1;stroke:#383138;stroke-width:0;stroke-opacity:1" id="path2" cx="81.529465675354" cy="10.919357001781464" rx="1.6706249713897705" ry="1.7432608604431152"/><ellipse style="display:inline;fill:#000000;fill-opacity:1;stroke:#383138;stroke-width:0;stroke-opacity:1" id="path2-2" cx="102.42361545562744" cy="29.21957367658615" rx="1.6706249713897705" ry="1.7432608604431152"/><path style="display:inline;fill:#000000;fill-opacity:1;stroke:#383138;stroke-width:0;stroke-opacity:1" d="m74.85204796051025,24.566456635570532 l5.79781,9.25762 l1.10498,0.50132 l1.20712,-0.35025 l21.4832,-21.754271 c0,0 -0.8442900000000004,-1.665621000000001 -1.7390700000000003,-0.809907 c-2.57829,2.465688 -5.7277700000000005,5.172978 -14.4374,13.949148000000001 c-1.9735399999999994,1.98861 -4.6366700000000005,4.62511 -5.83775,5.0676 c-1.7446400000000009,0.6427400000000008 -2.8338200000000002,-2.7776 -5.68891,-6.6801200000000005 c-1.18435,-1.6188500000000001 -2.70318,0.2123300000000001 -1.88998,0.81886 z" id="path3" sodipodi:nodetypes="cccccssssc"/><path id="rect3" style="fill:#000000;fill-opacity:1;stroke:#383138;stroke-width:0;stroke-opacity:1" d="m19.544227960510256,45.009766635570514 c-0.9972,0 -1.79989,0.8027000000000004 -1.79989,1.7999 v8.89973 c0,0.9972 0.8026900000000005,1.8004099999999998 1.79989,1.8004099999999998 h8.899716 c0.9972,0 1.79989,-0.80321 1.79989,-1.8004099999999998 v-8.89973 c0,-0.9972 -0.8026900000000005,-1.7999 -1.79989,-1.7999 zm2.172478,2.08878 h4.400248 c0.9972,0 1.79989,0.8026900000000005 1.79989,1.7999 v4.40025 c0,0.9972 -0.8026900000000005,1.79989 -1.79989,1.79989 h-4.400248 c-0.9972,0 -1.7998910000000001,-0.8026900000000005 -1.7998910000000001,-1.79989 v-4.40025 c0,-0.9972099999999996 0.8026910000000007,-1.7999 1.7998910000000001,-1.7999 z"/><path id="rect3-7" style="fill:#000000;fill-opacity:1;stroke:#383138;stroke-width:0;stroke-opacity:1" d="m37.46560996051025,45.20354663557052 c-0.9972,0 -1.79989,0.8026900000000005 -1.79989,1.79989 v8.89971 c0,0.9972 0.8026900000000005,1.8004099999999998 1.79989,1.8004099999999998 h8.899698 c0.9972,0 1.79989,-0.80321 1.79989,-1.8004099999999998 v-8.89971 c0,-0.9972 -0.8026900000000005,-1.79989 -1.79989,-1.79989 zm2.172478,2.08876 h4.400245 c0.997194,0 1.799878,0.8026900000000005 1.799878,1.79989 v4.40025 c0,0.9972 -0.8026840000000004,1.79989 -1.799878,1.79989 H39.63808796051025 c-0.9972,0 -1.7998910000000001,-0.8026900000000005 -1.7998910000000001,-1.79989 v-4.40025 c0,-0.9972 0.8026910000000007,-1.79989 1.7998910000000001,-1.79989 z"/><path id="rect3-7-2" style="fill:#000000;fill-opacity:1;stroke:#383138;stroke-width:0;stroke-opacity:1" d="m55.45733796051026,45.20355663557052 c-0.9972,0 -1.79989,0.8026900000000005 -1.79989,1.79989 v8.89972 c0,0.9972 0.8026900000000005,1.8004099999999998 1.79989,1.8004099999999998 h8.899750000000001 c0.9972,0 1.79989,-0.80321 1.79989,-1.8004099999999998 v-8.89972 c0,-0.9972 -0.8026900000000005,-1.79989 -1.79989,-1.79989 zm2.17249,2.08876 h4.40027 c0.9972,0 1.79989,0.8026900000000005 1.79989,1.79989 v4.40026 c0,0.9972 -0.8026900000000005,1.79989 -1.79989,1.79989 h-4.40027 c-0.9972,0 -1.7999,-0.8026900000000005 -1.7999,-1.79989 v-4.40026 c0,-0.9972 0.8027000000000004,-1.79989 1.7999,-1.79989 z"/><path id="rect3-7-2-9" style="fill:#000000;fill-opacity:1;stroke:#383138;stroke-width:0;stroke-opacity:1" d="m37.465613960510254,61.078656635570525 c-0.9972,0 -1.79989,0.8026900000000005 -1.79989,1.79989 v8.89973 c0,0.9972 0.8026900000000005,1.8004099999999998 1.79989,1.8004099999999998 h8.899744 c0.9972,0 1.79989,-0.80321 1.79989,-1.8004099999999998 v-8.89973 c0,-0.9972 -0.8026900000000005,-1.79989 -1.79989,-1.79989 zm2.17249,2.08876 h4.40027 c0.9972,0 1.799887,0.8026900000000005 1.799887,1.79989 v4.40027 c0,0.9972 -0.802687,1.79989 -1.799887,1.79989 h-4.40027 c-0.9972,0 -1.7999,-0.8026900000000005 -1.7999,-1.79989 v-4.40027 c0,-0.9972 0.8027000000000004,-1.79989 1.7999,-1.79989 z"/><path id="rect3-7-2-9-4" style="fill:#000000;fill-opacity:1;stroke:#383138;stroke-width:0;stroke-opacity:1" d="m19.47393496051025,61.60782663557052 c-0.9972,0 -1.79989,0.8027000000000004 -1.79989,1.7999 v8.899750000000001 c0,0.9972 0.8026900000000005,1.8004099999999998 1.79989,1.8004099999999998 h8.899745 c0.997184,0 1.799871,-0.80321 1.799871,-1.8004099999999998 v-8.899750000000001 c0,-0.9972 -0.802687,-1.7999 -1.799871,-1.7999 zm2.17249,2.0887700000000002 h4.40027 c0.9972,0 1.7998880000000002,0.8027000000000004 1.7998880000000002,1.7999 v4.40028 c0,0.9972 -0.8026880000000004,1.79989 -1.7998880000000002,1.79989 h-4.40027 c-0.9972,0 -1.7999,-0.8026900000000005 -1.7999,-1.79989 v-4.40028 c0,-0.9972 0.8027000000000004,-1.7999 1.7999,-1.7999 z"/><path id="rect3-7-2-9-4-6" style="fill:#000000;fill-opacity:1;stroke:#383138;stroke-width:0;stroke-opacity:1" d="m55.45733796051026,61.078656635570525 c-0.9972,0 -1.79989,0.80271 -1.79989,1.7999100000000001 v8.89977 c0,0.9972 0.8026900000000005,1.8004099999999998 1.79989,1.8004099999999998 h8.8998 c0.99718,0 1.79987,-0.80321 1.79987,-1.8004099999999998 v-8.89977 c0,-0.9972 -0.8026900000000005,-1.7999100000000001 -1.79987,-1.7999100000000001 zm2.17251,2.08878 h4.40029 c0.9972099999999996,0 1.7999,0.80271 1.7999,1.7999100000000001 v4.40029 c0,0.9972 -0.8026900000000005,1.79989 -1.7999,1.79989 h-4.40029 c-0.9972099999999996,0 -1.7999100000000001,-0.8026900000000005 -1.7999100000000001,-1.79989 v-4.40029 c0,-0.9972 0.8027000000000004,-1.7999100000000001 1.7999100000000001,-1.7999100000000001 z"/><path id="rect3-7-2-9-4-6-3" style="fill:#000000;fill-opacity:1;stroke:#383138;stroke-width:0;stroke-opacity:1" d="m37.465613960510254,76.95375663557053 c-0.9972,0 -1.79989,0.8027200000000004 -1.79989,1.7999200000000002 v8.89979 c0,0.9972 0.8026900000000005,1.8004099999999998 1.79989,1.8004099999999998 h8.899794 c0.99718,0 1.79987,-0.80321 1.79987,-1.8004099999999998 v-8.89979 c0,-0.9972 -0.8026900000000005,-1.7999200000000002 -1.79987,-1.7999200000000002 zm2.17251,2.08879 h4.40029 c0.9972099999999996,0 1.799897,0.8027200000000004 1.799897,1.7999200000000002 v4.4003 c0,0.9972 -0.802687,1.79989 -1.799897,1.79989 h-4.40029 c-0.9972099999999996,0 -1.7999100000000001,-0.8026900000000005 -1.7999100000000001,-1.79989 v-4.4003 c0,-0.9972 0.8027000000000004,-1.7999200000000002 1.7999100000000001,-1.7999200000000002 z"/><path id="rect3-7-2-9-4-6-3-1" style="fill:#000000;fill-opacity:1;stroke:#383138;stroke-width:0;stroke-opacity:1" d="m19.47393496051025,76.95375663557053 c-0.9972,0 -1.79989,0.80273 -1.79989,1.79993 v8.89981 c0,0.9972 0.8026900000000005,1.8004099999999998 1.79989,1.8004099999999998 h8.899795000000001 c0.9971639999999994,0 1.799851,-0.80321 1.799851,-1.8004099999999998 v-8.89981 c0,-0.9972 -0.802687,-1.79993 -1.799851,-1.79993 zm2.17251,2.0888 h4.40029 c0.9972099999999996,0 1.7998980000000002,0.80273 1.7998980000000002,1.79993 v4.40031 c0,0.9972 -0.8026880000000004,1.79989 -1.7998980000000002,1.79989 h-4.40029 c-0.9972099999999996,0 -1.7999100000000001,-0.8026900000000005 -1.7999100000000001,-1.79989 v-4.40031 c0,-0.9972 0.8027000000000004,-1.79993 1.7999100000000001,-1.79993 z"/><path id="rect3-7-2-9-4-6-3-1-7" style="fill:#000000;fill-opacity:1;stroke:#383138;stroke-width:0;stroke-opacity:1" d="m55.45735796051025,77.21819663557054 c-0.9972099999999996,0 -1.7999,0.80273 -1.7999,1.79993 v8.89981 c0,0.9972 0.8026900000000005,1.8004099999999998 1.7999,1.8004099999999998 h8.899840000000001 c0.99717,0 1.79986,-0.80321 1.79986,-1.8004099999999998 v-8.89981 c0,-0.9972 -0.8026900000000005,-1.79993 -1.79986,-1.79993 zm2.17252,2.0888 h4.40031 c0.99722,0 1.7999100000000001,0.80273 1.7999100000000001,1.79993 v4.40031 c0,0.9972 -0.8026900000000005,1.79989 -1.7999100000000001,1.79989 h-4.40031 c-0.99722,0 -1.7999200000000002,-0.8026900000000005 -1.7999200000000002,-1.79989 v-4.40031 c0,-0.9972 0.8027000000000004,-1.79993 1.7999200000000002,-1.79993 z"/><path id="rect3-7-2-9-4-6-3-1-7-9" style="fill:#000000;fill-opacity:1;stroke:#383138;stroke-width:0;stroke-opacity:1" d="m72.91997796051025,61.34309663557053 c-0.99722,0 -1.7999100000000001,0.80273 -1.7999100000000001,1.79993 v8.89981 c0,0.9972 0.8026900000000005,1.8004099999999998 1.7999100000000001,1.8004099999999998 h8.899890000000001 c0.99717,0 1.79987,-0.80321 1.79987,-1.8004099999999998 v-8.89981 c0,-0.9972 -0.8027000000000004,-1.79993 -1.79987,-1.79993 zm2.17253,2.0888 h4.40033 c0.99723,0 1.7999200000000002,0.80273 1.7999200000000002,1.79993 v4.40031 c0,0.9972 -0.8026900000000005,1.79989 -1.7999200000000002,1.79989 h-4.40033 c-0.99723,0 -1.79993,-0.8026900000000005 -1.79993,-1.79989 v-4.40031 c0,-0.9972 0.8027000000000004,-1.79993 1.79993,-1.79993 z"/><path id="rect4" style="fill:#000000;fill-opacity:1;stroke:#383138;stroke-width:0;stroke-opacity:1" d="m27.71427196051026,13.733466635570522 c-2.77,0 -5.000211,2.23022 -5.000211,5.00024 v6.00018 c0,2.77002 2.230211,4.99973 5.000211,4.99973 c2.77,0 4.999695,-2.22971 4.999695,-4.99973 v-6.00018 c0,-2.77002 -2.229695,-5.00024 -4.999695,-5.00024 zm0.132809,2.57505 c1.385,0 2.5001059999999997,1.50048 2.5001059999999997,3.3646700000000003 v4.38426 c0,1.8641900000000002 -1.115106,3.3646700000000003 -2.5001059999999997,3.3646700000000003 c-1.385,0 -2.5001059999999997,-1.50048 -2.5001059999999997,-3.3646700000000003 v-4.38426 c0,-1.8641900000000002 1.115106,-3.3646700000000003 2.5001059999999997,-3.3646700000000003 z"/><path id="rect4-8" style="fill:#000000;fill-opacity:1;stroke:#383138;stroke-width:0;stroke-opacity:1" d="m51.24930796051025,13.18878963557053 c-2.77001,0 -5.00024,2.230227 -5.00024,5.000237 v6.00019 c0,2.77001 2.23023,4.99972 5.00024,4.99972 c2.77002,0 4.99972,-2.22971 4.99972,-4.99972 v-6.00019 c0,-2.77001 -2.2297000000000002,-5.000237 -4.99972,-5.000237 zm0.13281,2.575057 c1.38501,0 2.50012,1.50048 2.50012,3.3646700000000003 v4.38425 c0,1.8641900000000002 -1.11511,3.3646700000000003 -2.50012,3.3646700000000003 c-1.38501,0 -2.50012,-1.50048 -2.50012,-3.3646700000000003 v-4.38425 c0,-1.8641900000000002 1.11511,-3.3646700000000003 2.50012,-3.3646700000000003 z"/><path style="fill:#000000;fill-opacity:1;stroke:#383138;stroke-width:0;stroke-opacity:1" d="M48.48822796051026,21.103216635570533 z" id="path5"/><rect style="fill:#000000;fill-opacity:1;stroke:#383138;stroke-width:0;stroke-opacity:1" id="rect7" width="15.592000007629395" height="2.4131250381469727" x="31.41072177886963" y="19.803809821605682" rx="1.7000000476837158" ry="0.414000004529953"/><rect style="fill:#000000;fill-opacity:1;stroke:#383138;stroke-width:0;stroke-opacity:1" id="rect7-7" width="5.471524238586426" height="2.4131250381469727" x="54.451157569885254" y="19.803390204906464" rx="0.5965617895126343" ry="0.414000004529953"/><rect style="fill:#000000;fill-opacity:1;stroke:#383138;stroke-width:0;stroke-opacity:1" id="rect7-7-5" width="5.471524238586426" height="2.4131250381469727" x="18.996994972229004" y="20.067939460277557" rx="0.5965617895126343" ry="0.414000004529953"/><rect style="fill:#000000;fill-opacity:1;stroke:#383138;stroke-width:0;stroke-opacity:1" id="rect7-1" width="50.30437469482422" height="2.4131250381469727" x="10.471970558166504" y="37.79505890607834" ry="1.1137499809265137"/><rect style="fill:#000000;fill-opacity:1;stroke:#383138;stroke-width:0;stroke-opacity:1" id="rect7-1-2" width="63.59914779663086" height="2.8735902309417725" x="11.702454566955566" y="95.20890778303146" ry="1.2999999523162842"/><rect style="fill:#000000;fill-opacity:1;stroke:#383138;stroke-width:0;stroke-opacity:1" id="rect7-1-2-1" width="67.37608337402344" height="2.8735902309417725" x="27.404990553855896" y="-13.19329571723938" ry="1.2999999523162842" transform="matrix(-0.000497081, 1, -1, -0.000537865, 0, 0)"/><rect style="fill:#000000;fill-opacity:1;stroke:#383138;stroke-width:0;stroke-opacity:1" id="rect7-1-2-6" width="45.756378173828125" height="2.8735902309417725" x="83.40342807769775" y="-233.41023284196854" ry="1.2999999523162842" transform="rotate(90.3436, -53.7634, -86.5591)"/><rect style="fill:#000000;fill-opacity:1;stroke:#383138;stroke-width:0;stroke-opacity:1" id="rect7-1-2-2" width="70.50093841552734" height="2.8735902309417725" x="16.52821445465088" y="101.4729306101799" ry="1.385854721069336"/><rect style="fill:#000000;fill-opacity:1;stroke:#383138;stroke-width:0;stroke-opacity:1" id="rect7-1-2-8" width="24.82797622680664" height="3.265441417694092" x="-14.431354403495789" y="119.13134002685547" ry="1.4772716760635376" transform="matrix(0.694358, -0.71963, 0.693181, 0.720763, 0, 0)"/><path id="path9" style="fill:#000000;fill-opacity:1;stroke:#383138;stroke-width:0;stroke-opacity:1" d="m79.49767796051026,76.07094663557052 c-5.02795,-0.06070000000000004 -9.90262,2.48985 -9.28936,12.935130000000001 c0.08010000000000007,1.36459 0.23489000000000004,2.50268 0.45062,3.44682 c0.95751,9.11312 5.31856,5.46362 9.36119,-0.2950800000000003 c4.8588900000000015,-5.14775 9.68675,-13.35422 9.68675,-13.35422 c0,0 -5.18125,-2.6719500000000007 -10.2092,-2.73265 zm0.0703,2.8178900000000002 c4.12742,-0.33007000000000036 7.80283,1.65456 7.80283,1.65456 c0,0 -16.22853,23.79054 -14.94326,7.08363 c0.5823900000000004,-7.57032 3.70966,-8.46383 7.14043,-8.73819 z" sodipodi:nodetypes="sscccsscss"/><path id="path10" style="fill:#000000;fill-opacity:1;stroke:#383138;stroke-width:0;stroke-opacity:1" d="m16.807095960510253,20.192366635570522 c-7.284688,0.13592 -6.473158,8.857050000000001 -6.473158,8.857050000000001 c0,0 1.231631,0.7004400000000004 2.798715,0.15229000000000015 l0.2361440000000001,-2.97773 c0.13139,-1.6568100000000001 1.31234,-2.79161 2.974196,-2.81345 l2.960795,-0.03890000000000001 c0.810185,-0.010600000000000007 3.0632800000000002,-0.24968 3.60203,0.26884 c2.186638,-1.49877 1.906145,-2.41893 -2.148876,-3.4163200000000002 c-1.147403,-0.28222 -3.055235,-0.04850000000000003 -3.949846,-0.03180000000000003 z" sodipodi:nodetypes="sccssscsss"/><text xml:space="preserve" style="font-style:normal;font-variant:normal;font-weight:normal;font-stretch:extra-condensed;font-size:19.2949px;font-family:'Noto Sans Gurmukhi ExtraCondensed';-inkscape-font-specification:'Noto Sans Gurmukhi ExtraCondensed,  Extra-Condensed';text-align:start;writing-mode:lr-tb;direction:ltr;text-anchor:start;fill:#000000;fill-opacity:1;stroke:#000000;stroke-width:0.781342;stroke-dasharray:none;stroke-opacity:1" x="9.451824960510251" y="124.52262663557053" id="text13"><tspan sodipodi:role="line" id="tspan13" style="font-style:normal;font-variant:normal;font-weight:normal;font-stretch:extra-condensed;font-family:'Noto Sans Gurmukhi ExtraCondensed';-inkscape-font-specification:'Noto Sans Gurmukhi ExtraCondensed,  Extra-Condensed';fill:#000000;fill-opacity:1;stroke:#000000;stroke-width:0.781342;stroke-dasharray:none;stroke-opacity:1" x="9.451824960510251" y="124.52262663557053">Sched<tspan style="font-style:normal;font-variant:normal;font-weight:normal;font-stretch:normal;font-family:'Noto Sans Gurmukhi';-inkscape-font-specification:'Noto Sans Gurmukhi';fill:#000000;fill-opacity:1;stroke:#000000;stroke-opacity:1" id="tspan1">4</tspan>All</tspan></text><rect style="fill:#000000;stroke:#000000;stroke-width:0.799999;fill-opacity:0;stroke-opacity:0" id="rect1" width="142.93572998046875" height="138.81979370117188" x="-15.223174095153809" y="0.6241757273674011" rx="3"/></g></g></svg>